<?xml version="1.0"?><svg width="404.3733333333333" height="501.1866666666666" xmlns="http://www.w3.org/2000/svg">
 <title>Cartoon Stone</title>

 <g>
  <title>Layer 1</title>
  <g id="g630">
   <path fill="#c7c7c7" d="m59.176098,481.63446c-2.837875,-0.337982 -5.221676,-1.019562 -7.858486,-2.246826c-1.293919,-0.602264 -2.534832,-1.094971 -2.757587,-1.094971c-0.222744,0 -0.860718,-0.417206 -1.417732,-0.927155c-0.557014,-0.509918 -1.723282,-1.289917 -2.591705,-1.733307c-1.496738,-0.764191 -2.079056,-1.154968 -6.01152,-4.033997c-0.904594,-0.662292 -2.448635,-1.587921 -3.431202,-2.056976c-1.620735,-0.773682 -1.933567,-1.1091 -3.371756,-3.615479c-1.235973,-2.153961 -1.573063,-3.059326 -1.529861,-4.108856c0.031506,-0.765472 -0.17218,-1.650787 -0.472168,-2.052368c-0.415651,-0.556396 -0.527573,-1.745056 -0.527573,-5.602966c0,-4.659607 -0.127371,-5.687378 -1.100391,-8.878906c-0.267986,-0.879028 -0.517086,-5.787933 -0.690193,-13.601349c-0.148975,-6.724274 -0.351198,-13.326263 -0.449383,-14.671112c-0.538601,-7.377258 -0.122356,-10.681549 1.592146,-12.639008c0.346228,-0.395294 0.730364,-1.220551 0.853634,-1.833893c0.419607,-2.08783 1.474659,-4.448029 2.465097,-5.514557c2.952578,-3.179474 3.645819,-4.196442 4.469854,-6.557159c0.759823,-2.176819 2.563068,-5.030487 4.182022,-6.618225c0.257107,-0.252136 1.045307,-2.040192 1.751579,-3.973419c0.706242,-1.933228 1.738659,-4.419952 2.294212,-5.526062c0.555588,-1.10611 1.013008,-2.206451 1.016491,-2.44519c0.003483,-0.238739 0.473938,-1.039337 1.045452,-1.779083c0.571514,-0.739746 1.039108,-1.532501 1.039108,-1.761688c0,-0.463623 1.378567,-2.98111 3.13224,-5.720001c0.836987,-1.30719 1.580547,-2.015106 2.728802,-2.598022c0.868073,-0.440674 2.217541,-1.373413 2.998775,-2.072754c0.781265,-0.699341 2.126129,-1.577148 2.988628,-1.950684c0.862499,-0.373535 2.156696,-1.142395 2.876003,-1.708527c1.122047,-0.883148 1.559322,-1.029388 3.078297,-1.029388c1.154701,0 2.678589,-0.318939 4.381378,-0.916962c2.568359,-0.902008 2.71476,-0.916931 8.988754,-0.916931c8.712585,0 10.526863,0.365814 13.834076,2.789337c1.34996,0.989227 2.870499,1.881683 3.378967,1.983215c1.52417,0.30426 7.182709,3.145844 7.713028,3.87326c2.640923,3.622467 6.736954,11.356018 6.443787,12.166199c-0.122681,0.33902 0.086769,1.161438 0.481461,1.890686c0.384201,0.709869 0.867088,1.857269 1.07312,2.549774c0.205986,0.692505 0.66494,1.586548 1.019836,1.986725c0.354935,0.400177 0.747147,1.209015 0.87159,1.797394c0.237114,1.120972 0.775101,1.954865 2.452637,3.801788c0.95536,1.051849 0.986099,1.174622 0.570251,2.279755c-0.36869,0.979797 -0.354439,1.335052 0.088379,2.204376c0.290321,0.570007 0.705536,1.517761 0.922646,2.10611c0.217133,0.588379 0.757782,1.551178 1.201439,2.139557c0.460831,0.611176 0.878769,1.724884 0.974876,2.597992c0.092552,0.840546 0.421112,2.009644 0.730148,2.598022c0.309029,0.588379 0.754845,2.708405 0.9907,4.711212c0.380341,3.229797 0.534821,3.748077 1.366478,4.584717c0.515686,0.518799 1.056458,1.28714 1.201714,1.707397c0.255928,0.740479 1.464737,2.632935 3.532471,5.530243c2.29789,3.219849 3.656532,4.798065 5.46653,6.349915c1.052628,0.902527 2.20018,2.209167 2.550095,2.903656c0.349915,0.694489 1.199966,2.037079 1.889023,2.983551c0.689056,0.946472 1.679169,2.746185 2.200287,3.999359c0.934494,2.247253 0.945618,2.361755 0.811523,8.365509c-0.155563,6.964355 -0.364899,8.047577 -2.111221,10.923218c-0.696518,1.146973 -1.266388,2.500671 -1.266388,3.008301c0,0.507629 -0.313629,1.272644 -0.696976,1.700073c-0.46431,0.517731 -0.69696,1.23996 -0.69696,2.163666c0,0.836517 -0.219055,1.598877 -0.552231,1.921783c-0.303757,0.294373 -0.639969,1.108765 -0.747192,1.809784c-0.174042,1.138031 -0.658859,1.682953 -4.526382,5.087402c-2.796829,2.462006 -4.848885,4.007385 -5.791847,4.361908c-0.803177,0.301971 -1.67334,0.774139 -1.933693,1.049255c-0.260323,0.275146 -0.69561,0.500275 -0.967255,0.500275c-0.271683,0 -1.075775,0.251892 -1.786888,0.559814c-1.595047,0.690643 -4.118904,1.148499 -8.441498,1.531311c-3.076584,0.272491 -3.628479,0.4328 -7.666641,2.226563l-4.35141,1.932922l-4.084473,0.17514c-3.683891,0.157928 -4.171738,0.247009 -4.97419,0.908203c-1.187912,0.978851 -5.249977,1.478851 -12.373093,1.523102c-4.137093,0.025696 -5.727783,0.150818 -6.795433,0.534515c-1.297478,0.466309 -3.297073,0.558533 -7.056793,0.325531c-0.71875,-0.044556 -1.620449,-0.001648 -2.003784,0.095306c-0.383331,0.096924 -1.559467,0.073547 -2.613628,-0.052002z" id="path2208"/>
   <path fill="#606060" d="m65.100327,481.176514c-1.154915,-0.327484 -1.834423,-0.363342 -2.578506,-0.136017c-1.587482,0.484924 -3.67514,0.365112 -6.133591,-0.35199c-2.847778,-0.830658 -8.548344,-3.22998 -9.126896,-3.8414c-0.239822,-0.253418 -1.538342,-1.129211 -2.885616,-1.946136c-1.347237,-0.816925 -3.312057,-2.107971 -4.366226,-2.869019c-1.054161,-0.761017 -2.622337,-1.78833 -3.484825,-2.282898c-0.862495,-0.494537 -1.891029,-1.099365 -2.285625,-1.343994c-1.167301,-0.723724 -3.659187,-5.533752 -3.417013,-6.595795c0.131001,-0.574493 -0.020412,-1.25589 -0.424276,-1.909302c-0.509766,-0.824738 -0.676426,-2.1091 -0.885412,-6.823303c-0.141594,-3.194 -0.446321,-6.563782 -0.67717,-7.488373c-0.27029,-1.08255 -0.461559,-5.653046 -0.537216,-12.837219c-0.064619,-6.135895 -0.27585,-11.912628 -0.469397,-12.837219c-1.137712,-5.434875 -0.478306,-13.652252 1.228251,-15.306213c0.335047,-0.324707 0.72912,-1.174286 0.875719,-1.887939c0.499723,-2.432709 1.494926,-4.352081 3.181686,-6.136292c1.938572,-2.050568 3.11417,-3.956818 3.904034,-6.330475c0.305271,-0.91745 0.828766,-2.027771 1.163311,-2.467468c0.334545,-0.439667 1.033146,-1.356537 1.55246,-2.037415c0.51931,-0.680908 1.094589,-1.319519 1.278343,-1.419128c0.344685,-0.186859 2.830452,-6.522339 2.830452,-7.213989c0,-0.213623 0.48753,-1.296326 1.08337,-2.406067c2.485699,-4.629578 3.074078,-5.767578 3.808681,-7.366516c0.424767,-0.924591 1.379646,-2.566406 2.121952,-3.648468c0.742302,-1.082092 1.349609,-2.078094 1.349609,-2.213348c0,-0.135254 0.868561,-0.675842 1.930077,-1.201294c1.06155,-0.525452 2.35199,-1.440521 2.867672,-2.033508c0.583851,-0.671387 1.735485,-1.39212 3.052647,-1.910431c1.163277,-0.457794 2.371223,-1.175232 2.684303,-1.59433c0.492546,-0.659302 0.893963,-0.78241 2.978107,-0.913177c1.563751,-0.098145 3.115028,-0.434753 4.421906,-0.959503c1.695381,-0.680756 2.501457,-0.80835 5.107346,-0.80835c3.335617,0 4.021576,0.386536 1.613167,0.909058c-0.814575,0.176697 -2.657188,0.609039 -4.094681,0.960724c-1.4375,0.351685 -3.522789,0.753021 -4.634003,0.891907c-2.630562,0.328735 -6.801144,1.710876 -7.930477,2.628143c-0.489658,0.397736 -1.042805,0.723145 -1.229206,0.723145c-0.536945,0 -2.288601,1.883057 -2.843208,3.056458c-0.278091,0.588379 -0.787678,1.344879 -1.132465,1.681091c-0.606335,0.591248 -3.488152,5.363434 -3.488152,5.776184c0,0.184082 -1.833549,2.75708 -4.102665,5.757172c-0.474773,0.627747 -0.863228,1.510315 -0.863228,1.961243c0,0.712158 -0.866642,2.612183 -2.053093,4.501038c-0.198215,0.315552 -0.586567,1.347137 -0.863056,2.292358c-0.276447,0.945251 -0.994812,2.934387 -1.596333,4.420227c-0.893127,2.206207 -1.258617,2.752655 -1.993221,2.979889c-0.494778,0.153076 -1.110863,0.383301 -1.369087,0.511627c-0.588066,0.292206 -1.434925,2.380737 -1.441891,3.55603c-0.002979,0.501984 -0.556606,1.613861 -1.278671,2.567963c-0.700378,0.925476 -1.312672,1.971283 -1.360653,2.324005c-0.047985,0.352722 -0.334755,1.053101 -0.637276,1.556427c-0.302517,0.503296 -0.732601,1.672424 -0.95573,2.597992c-0.223133,0.925598 -0.789383,2.852051 -1.258337,4.280945c-1.481522,4.514221 -2.172867,7.147339 -2.177109,8.291931c-0.002266,0.610077 0.322723,2.673187 0.722191,4.584747c0.399469,1.911499 0.85663,4.107483 1.015915,4.879944c0.159286,0.772491 0.514896,2.079132 0.790247,2.903687c0.398476,1.193237 0.441364,2.372406 0.210194,5.778259c-0.15974,2.353485 -0.444029,4.89801 -0.631748,5.65451c-0.530659,2.138458 -0.768229,4.705444 -0.467102,5.04715c0.150066,0.170288 0.728292,0.445374 1.284943,0.611298c1.620293,0.482971 3.132099,3.177704 3.084316,5.497711c-0.023087,1.120758 0.15556,2.097107 0.459415,2.510834c0.273457,0.372314 0.497189,1.18219 0.497189,1.799713c0,0.88504 0.295109,1.403534 1.393925,2.449097c1.447113,1.376953 1.770885,2.370331 0.871208,2.673126c-0.737667,0.248291 -0.653023,0.697388 0.348484,1.84903c0.479164,0.550995 0.871208,1.139435 0.871208,1.307648c0,0.518066 -1.385674,1.449585 -1.699169,1.142181c-0.15884,-0.155731 -1.174442,-1.141571 -2.256912,-2.190765c-1.843826,-1.78717 -1.968128,-2.004944 -1.968128,-3.448151c0,-1.103333 0.151875,-1.591583 0.535229,-1.720642c0.467632,-0.157349 0.472717,-0.263794 0.040245,-0.842712c-0.272243,-0.36441 -0.580746,-1.757599 -0.685562,-3.095978c-0.255676,-3.264557 -0.666584,-4.99649 -1.467663,-6.185883c-1.171726,-1.739807 -1.390484,-1.071442 -1.288034,3.935272c0.137144,6.702393 0.836905,9.960724 2.285166,10.640564c0.437187,0.2052 1.33474,0.987518 1.994564,1.738495c0.659824,0.750946 2.031746,2.079102 3.048691,2.951447c1.016949,0.872345 2.166664,2.036896 2.554909,2.587891c0.388279,0.550995 0.854275,1.001831 1.035557,1.001831c0.181278,0 1.383827,0.973724 2.67231,2.16391c1.288517,1.190125 3.440437,2.898285 4.782104,3.795959c2.040997,1.365479 3.008564,1.772125 5.924225,2.489746c3.188034,0.784637 3.912666,0.851166 8.507843,0.780914c5.441437,-0.083191 6.192558,-0.251831 9.594421,-2.1539c0.947945,-0.529999 2.011383,-0.963654 2.363213,-0.963654c0.909187,0 1.157623,0.836182 0.451698,1.520355c-2.293472,2.222717 4.117271,0.992676 8.921471,-1.711792c1.729523,-0.973602 2.94632,0.483948 1.263527,1.513519c-0.777641,0.4758 -0.774017,0.479858 0.440796,0.495758c1.250366,0.016388 4.583572,-1.24881 6.86039,-2.604004c1.853828,-1.103394 3.592377,-0.973022 2.867462,0.215027c-0.489822,0.802704 -0.073807,0.736359 2.880196,-0.459442c1.4002,-0.566803 3.086243,-1.529602 3.74675,-2.139557c1.35466,-1.250916 2.806618,-1.508362 2.806618,-0.49765c0,0.336212 0.09343,0.611298 0.207596,0.611298c0.682259,0 2.29097,-1.191895 3.072578,-2.276459c1.43457,-1.99057 2.877113,-3.244904 3.493347,-3.037476c0.629143,0.211761 0.682671,0.676697 0.204803,1.779083c-0.441185,1.017761 0.081123,1.029633 1.566956,0.035675c1.300323,-0.869934 2.606201,-3.108978 2.606201,-4.468658c0,-0.905762 0.046318,-0.935638 1.127487,-0.727325c1.293427,0.249146 2.705833,0.987823 2.705833,1.415131c0,0.159973 -0.410652,0.763123 -0.912575,1.340271c-0.661278,0.760437 -0.772095,1.049377 -0.402458,1.049377c0.721458,0 1.502701,-0.84259 2.306747,-2.487946c0.759659,-1.554474 1.381569,-2.073883 1.789711,-1.494629c0.192123,0.272614 0.466377,0.184326 1.006485,-0.324158c0.770332,-0.72522 0.984505,-1.50058 0.414497,-1.50058c-0.180382,0 -0.424843,0.137543 -0.543327,0.305664c-0.275993,0.391663 -1.810234,0.398285 -2.084564,0.008942c-0.11499,-0.163147 0.045937,-0.729126 0.35759,-1.257721c0.407372,-0.690918 0.460342,-1.05423 0.188461,-1.292664c-0.615875,-0.540222 -0.436661,-0.820709 0.524323,-0.820709c0.937561,0 2.189072,-1.025085 2.239044,-1.833893c0.030319,-0.490509 0.461349,-1.246857 2.521355,-4.424103c0.718735,-1.108551 1.306808,-2.271179 1.306808,-2.583618c0,-0.312439 0.2285,-0.644989 0.507767,-0.738983c0.618713,-0.208221 0.409164,0.388367 -1.282135,3.650848c-0.182983,0.352905 -0.282272,0.903076 -0.220734,1.222595c0.061584,0.319489 -0.159775,0.92099 -0.491913,1.336639c-0.332138,0.415619 -0.603889,0.910095 -0.603889,1.098785c0,0.188721 -0.295616,0.577759 -0.65696,0.864563c-1.066879,0.846832 -1.313194,3.241058 -0.333389,3.241058c0.180931,0 0.55381,-0.472015 0.828613,-1.048889c0.274818,-0.576843 0.67157,-1.142029 0.881668,-1.25592c0.210098,-0.113892 0.289978,-0.528625 0.177521,-0.921661c-0.130966,-0.457611 -0.023376,-0.803497 0.299072,-0.961792c0.31955,-0.15683 0.543137,-0.860901 0.611862,-1.926453c0.104721,-1.624115 0.139984,-1.677429 1.072174,-1.621124c1.421371,0.085846 2.116318,-0.992676 1.806641,-2.803741c-0.13266,-0.776062 -0.418274,-1.576111 -0.634659,-1.777924c-0.2164,-0.201782 -0.587982,-0.842102 -0.82576,-1.422974c-0.395523,-0.966125 -0.361786,-1.122253 0.395813,-1.833893c1.221054,-1.146881 1.964508,-2.605316 2.193848,-4.303772c0.23233,-1.72052 -0.210876,-2.434174 -1.511688,-2.434174c-0.547226,0 -0.940735,-0.23819 -1.136246,-0.687714c-0.264389,-0.607971 -0.841049,-1.153015 -3.577248,-3.381226c-0.954567,-0.777344 -0.635284,-1.254517 0.958717,-1.432739l1.366684,-0.152802l-1.143936,-0.752563c-1.089325,-0.716644 -2.166664,-2.155762 -2.166664,-2.894257c0,-0.475952 1.285172,-1.396393 1.949699,-1.396393c0.884552,0 0.362213,-0.72171 -0.929543,-1.284332l-1.194397,-0.520203l1.813164,-0.014679c3.28923,-0.026611 4.305969,0.820465 3.570175,2.974457c-0.382782,1.120544 -0.312164,1.352692 1.352051,4.447144c0.965729,1.795715 2.001587,3.347626 2.30191,3.4487c0.300293,0.101074 0.546005,0.436005 0.546005,0.744324c0,0.308289 0.156815,0.645538 0.34848,0.749451c0.425507,0.230652 0.431076,0.343475 -0.158142,-3.20929c-0.808548,-4.875641 -1.39679,-6.344421 -3.581192,-8.941711c-3.260101,-3.876404 -3.386154,-4.201172 -1.630447,-4.201172c0.79631,0 0.827866,-0.053345 0.415054,-0.702515c-0.7854,-1.235077 -2.835175,-3.600616 -4.569473,-5.273346c-1.967789,-1.897949 -4.357857,-4.851654 -5.673874,-7.011963c-0.511292,-0.839325 -2.060852,-2.971222 -3.443504,-4.737549c-2.645027,-3.37915 -4.009865,-5.495667 -4.009865,-6.218414c0,-0.238251 0.23819,-0.606598 0.529282,-0.818481c0.707039,-0.514679 1.568176,0.172241 3.045921,2.429657c0.728012,1.112152 1.154076,1.522369 1.230209,1.184601c0.064087,-0.28421 -0.149673,-0.873077 -0.474976,-1.308533c-0.325348,-0.435486 -0.50412,-0.868439 -0.397308,-0.962158c0.106842,-0.093689 -0.207527,-1.086578 -0.69854,-2.20639c-0.491013,-1.119843 -1.332985,-3.051056 -1.871033,-4.291565c-0.538063,-1.24054 -1.283264,-2.54718 -1.656036,-2.903656c-0.372742,-0.356506 -0.783112,-1.085663 -0.91198,-1.620392c-0.12883,-0.534729 -0.459412,-1.136139 -0.734573,-1.336456c-0.2752,-0.200287 -0.500351,-0.531097 -0.500351,-0.735077c0,-0.33551 -0.592674,-1.090057 -3.491112,-4.444611c-1.428787,-1.653656 -2.622307,-3.603729 -2.351181,-3.841553c0.134651,-0.118073 0.646187,0.015961 1.136749,0.297882c0.490555,0.281921 1.050438,0.426666 1.244156,0.321655c0.193726,-0.105042 0.86689,0.30188 1.495934,0.904205c1.605431,1.537292 2.149307,1.364777 0.883545,-0.280212c-0.5821,-0.75647 -1.201431,-1.375397 -1.376289,-1.375397c-0.174835,0 -0.71524,-0.687714 -1.200882,-1.528259c-0.485611,-0.840515 -1.022202,-1.528229 -1.192444,-1.528229c-0.393784,0 -2.118149,-2.561829 -2.118149,-3.146851c0,-0.242004 -0.705681,-1.363007 -1.568176,-2.491089c-0.862503,-1.128113 -1.568184,-2.310608 -1.568184,-2.627747c0,-0.642365 0.969582,-1.209412 2.068008,-1.209412c0.919304,0 0.904976,-0.263062 -0.098724,-1.812958c-1.089638,-1.682526 -4.102982,-3.898621 -5.867973,-4.31546c-0.782211,-0.184723 -2.005424,-0.674408 -2.718285,-1.088165c-0.71286,-0.413757 -2.371498,-1.094391 -3.685837,-1.512543c-1.314377,-0.418121 -2.709465,-0.967926 -3.100258,-1.221741c-2.57132,-1.670105 -3.170921,-1.969421 -3.945076,-1.969421c-1.231544,0 -3.560875,-0.653595 -3.560875,-0.999146c0,-0.390961 7.10952,-0.095764 8.798447,0.365295c0.71833,0.196106 2.307724,1.101898 3.532059,2.012878c1.224281,0.91098 2.868362,1.850464 3.653534,2.087708c0.785133,0.237244 2.632553,1.032867 4.105415,1.768036c3.123665,1.559143 3.56308,2.074341 7.117989,8.345337c1.730362,3.05249 2.413673,4.591797 2.413673,5.437408c0,0.648804 0.29245,1.689911 0.649857,2.313629c0.357437,0.623688 0.751335,1.625275 0.875359,2.225708c0.124023,0.600464 0.615692,1.555573 1.09256,2.122528c0.476898,0.566925 0.867065,1.283569 0.867065,1.592499c0,1.012817 1.056389,2.81366 2.315117,3.946716c1.051025,0.946075 1.178673,1.205688 0.854202,1.737366c-0.519905,0.852081 -0.45916,2.18927 0.141273,3.110535c0.273941,0.420258 0.503593,1.049988 0.510391,1.399414c0.006798,0.349396 0.493843,1.272858 1.082291,2.052094c0.736519,0.97522 1.169228,2.031647 1.388535,3.389679c0.175171,1.085114 0.470306,2.29361 0.655762,2.685455c0.185509,0.391907 0.58268,2.358002 0.882645,4.36911c0.452332,3.032684 0.68631,3.788818 1.371468,4.431885c0.454308,0.426453 0.943787,1.119232 1.087708,1.53949c0.313156,0.914581 4.585289,7.239777 5.065773,7.500214c0.18512,0.100342 0.657135,0.733612 1.048981,1.407227c0.39183,0.673645 1.624908,2.005341 2.740219,2.959351c1.115295,0.95401 2.570801,2.628571 3.234497,3.721283c0.663696,1.092682 1.626892,2.623871 2.140518,3.402649c0.513596,0.778778 1.322754,2.392303 1.79808,3.585602c0.790176,1.983643 0.864273,2.618744 0.864273,7.40686c0,5.727539 -0.173019,6.518402 -2.317795,10.592468c-0.641876,1.219269 -1.171921,2.594696 -1.177917,3.056488c-0.005966,0.461823 -0.397202,1.389832 -0.869431,2.062256c-0.525558,0.748413 -0.86351,1.696747 -0.871384,2.44519c-0.007111,0.672424 -0.243134,1.489594 -0.524536,1.815887c-0.281403,0.326324 -0.511642,0.905518 -0.511642,1.287109c0,1.386444 -7.152245,8.118103 -9.927261,9.343475c-0.769135,0.339661 -1.605782,0.763519 -1.8592,0.941925c-1.549873,1.091217 -7.310692,2.658142 -9.77253,2.658142c-3.182655,0 -5.486252,0.604584 -9.93248,2.606812l-4.392212,1.977905l-3.637413,0c-3.319862,0 -3.723412,0.063354 -4.622459,0.72583c-1.303818,0.960663 -7.449188,1.71936 -13.927048,1.71936c-3.447731,0 -4.953873,0.119202 -5.682663,0.449738c-1.495132,0.678101 -3.497307,0.790527 -5.246521,0.294586zm-27.879486,-13.631042c-0.577839,-0.699615 -1.390522,-1.480865 -1.805965,-1.736084c-0.694233,-0.426483 -0.736286,-0.420471 -0.519745,0.074463c0.129581,0.296173 0.2356,0.648468 0.2356,0.782898c0,0.399017 2.184425,2.150818 2.681957,2.150818c0.284573,0 0.059799,-0.483093 -0.591846,-1.272095zm97.514801,-21.439423c-0.031891,-0.536926 0.064301,-1.354462 0.21376,-1.816772c0.378128,-1.169678 -0.310989,-1.084473 -0.997986,0.123383c-0.646332,1.136322 -0.652191,1.201782 -0.200424,2.243866c0.451538,1.041656 1.059021,0.702026 0.98465,-0.550476zm-104.253036,-14.424744c-0.095682,-1.176758 -0.300032,-2.414612 -0.454103,-2.750824c-0.250196,-0.545959 -0.304695,-0.513275 -0.509836,0.305634c-0.309175,1.234192 -0.360056,6.535919 -0.0718,7.481445c0.416838,1.367249 1.233522,-2.603851 1.03574,-5.036255zm104.194244,-6.099792c-0.11351,-0.259399 -0.373642,-0.471649 -0.578064,-0.471649c-0.257706,0 -0.252396,0.195435 0.017319,0.637451c0.432571,0.708923 0.884903,0.575195 0.560745,-0.165802zm-1.273712,-1.327454c0,-0.321442 -0.756866,-0.978088 -1.12738,-0.978088c-0.16008,0 -0.12323,0.275085 0.08194,0.611298c0.368347,0.603638 1.045441,0.841187 1.045441,0.366791zm-84.277935,44.869141c-0.760849,-0.902588 -0.761856,-0.916931 -0.065556,-0.916931c1.03521,0 0.885605,-0.39563 -0.860786,-2.276154c-1.606716,-1.730164 -2.017509,-2.919861 -1.008163,-2.919861c0.398663,0 0.486172,-0.154114 0.303665,-0.534882c-0.140957,-0.294189 -0.338097,-0.868408 -0.438038,-1.276031c-0.099911,-0.407654 -0.376087,-1.069794 -0.613682,-1.471466c-0.55632,-0.940521 -0.262825,-1.913666 0.577194,-1.913666c0.757462,0 0.842354,-0.325836 0.225815,-0.866577c-0.524433,-0.460022 -0.725609,-6.067291 -0.227348,-6.337341c0.185738,-0.100708 0.238781,-0.456512 0.117821,-0.790741c-0.303211,-0.837921 0.104092,-2.091705 0.679546,-2.091705c0.462154,0 1.254398,2.088348 1.254398,3.30661c0,0.324921 0.392044,1.368225 0.871212,2.318512c1.020042,2.02301 1.075352,2.581879 0.304363,3.076324c-0.458359,0.293976 -0.49049,0.488647 -0.167866,1.017426c0.524364,0.859344 0.372185,2.571167 -0.266552,2.997742c-0.595909,0.397949 -0.309906,1.272919 0.505821,1.547485c0.311199,0.104706 0.689266,0.015228 0.84016,-0.198914c0.361866,-0.51358 1.049217,-0.121185 1.049217,0.598938c0,0.894073 -0.379395,1.535217 -0.908497,1.535217c-0.627445,0 -0.61525,0.664032 0.037285,2.033844c0.287498,0.603516 0.522728,1.409637 0.522728,1.791382c0,0.381744 -0.235229,0.773254 -0.522728,0.870026c-0.287495,0.096771 -0.522724,0.455322 -0.522724,0.796814c0,0.900879 -0.796112,0.7612 -1.687286,-0.296051zm-1.274826,-2.139526c-0.11845,-0.168121 -0.049274,-0.305664 0.153679,-0.305664c0.202995,0 0.369045,0.137543 0.369045,0.305664c0,0.168091 -0.069134,0.305634 -0.153645,0.305634c-0.084541,0 -0.250595,-0.137543 -0.36908,-0.305634zm67.084797,-3.403625c-0.000908,-0.106873 0.232613,-0.588257 0.518929,-1.069763c0.301193,-0.506561 0.521469,-1.692474 0.522728,-2.814392c0.001846,-1.681 0.094864,-1.960175 0.699089,-2.098785c0.798904,-0.183228 0.898705,-1.018036 0.301376,-2.520935c-0.24826,-0.624603 -0.271233,-1.068542 -0.061714,-1.191803c0.18364,-0.108032 0.435181,-0.437103 0.558922,-0.731293c0.261398,-0.621368 1.637772,-0.712616 2.305992,-0.152802c0.478539,0.400818 0.467735,0.184662 -0.149147,-2.992767c-0.183868,-0.947021 -0.10939,-1.3302 0.319031,-1.64209c0.992973,-0.722809 0.728088,-3.193726 -0.563225,-5.253876c-0.720688,-1.149841 -1.001152,-1.893951 -0.784088,-2.080292c0.55127,-0.473145 2.254662,-0.750031 2.254662,-0.366455c0,0.18631 -0.254433,0.338776 -0.565384,0.338776c-0.444481,0 -0.479027,0.091309 -0.161415,0.42691c0.23069,0.243835 0.72094,0.354218 1.143135,0.257385c0.632004,-0.144989 0.70874,-0.067352 0.529106,0.535156c-0.123657,0.414673 0.051781,1.157806 0.426254,1.805725c0.350029,0.605591 0.738403,1.788788 0.863098,2.629303c0.302689,2.040771 -0.284096,5.862976 -1.007782,6.564362c-0.31559,0.305817 -0.645958,1.066437 -0.734154,1.690247c-0.088234,0.623749 -0.34594,1.42865 -0.572693,1.788605c-0.598877,0.950623 -1.637947,3.622498 -1.651192,4.24585c-0.007813,0.367035 -0.290359,0.534882 -0.900345,0.534882c-0.581573,0 -1.304054,0.396362 -2.089264,1.146179c-0.660126,0.630402 -1.201019,1.058746 -1.20192,0.951874zm7.692505,-5.281891c-0.015121,-0.322205 0.067223,-0.502716 0.183014,-0.401154c0.115807,0.101563 0.128174,0.365173 0.027504,0.585815c-0.111237,0.243835 -0.193787,0.171387 -0.210518,-0.184662zm-33.956367,-14.299316c-0.337784,-0.462708 -0.483627,-1.329651 -0.42675,-2.536804c0.052902,-1.122467 -0.161102,-2.531097 -0.551651,-3.631195c-0.769211,-2.166595 -0.763672,-2.023285 -0.078094,-2.023285c0.397415,0 0.486557,-0.155304 0.306976,-0.534882c-0.575348,-1.216217 -0.933655,-2.845306 -0.728745,-3.313629c0.149811,-0.342377 0.495262,-0.454071 1.094101,-0.353638c1.140022,0.191132 1.434738,-0.266632 0.65699,-1.020386c-0.432465,-0.419128 -0.508156,-0.695862 -0.251808,-0.920685c0.627892,-0.55072 -1.492004,-4.663452 -2.857224,-5.543152c-0.191666,-0.123505 0.166122,-0.226654 0.795036,-0.229248c1.325142,-0.005432 1.71405,-0.562073 1.098,-1.571655c-0.234184,-0.38382 -0.44899,-1.338654 -0.477318,-2.121918c-0.032028,-0.885345 -0.276596,-1.62146 -0.646507,-1.945892c-0.327232,-0.287018 -0.594971,-0.94278 -0.594971,-1.457275c0,-1.215118 -1.192329,-2.887177 -2.473007,-3.468079c-1.221687,-0.554077 -1.313095,-1.054474 -0.19268,-1.054474c0.53492,0 1.422752,0.556732 2.558846,1.604645c0.956833,0.882568 2.122337,1.829254 2.589996,2.103729c2.30143,1.350769 4.853584,6.648407 4.830971,10.027771c-0.007393,1.1026 0.114883,2.486145 0.271782,3.074493c0.156853,0.588379 0.153992,1.931152 -0.006416,2.983978c-0.182808,1.200104 -0.156677,2.340363 0.070076,3.056488c0.714569,2.256775 0.399223,4.351593 -0.655045,4.351593c-0.455368,0 -0.711357,0.478149 -1.075623,2.009186c-0.53064,2.230164 -0.855881,2.726227 -1.979042,3.018311c-0.568275,0.147827 -0.896545,0.018341 -1.277893,-0.503998zm3.493065,-8.2677c-0.096672,-0.210144 -0.175774,-0.038208 -0.175774,0.38205c0,0.420288 0.079102,0.592194 0.175774,0.38208c0.096664,-0.210144 0.096664,-0.553986 0,-0.76413zm-1.798981,-4.813965c-0.118446,-0.168091 -0.2845,-0.305634 -0.369041,-0.305634c-0.084511,0 -0.153679,0.137543 -0.153679,0.305634c0,0.168121 0.166084,0.305664 0.369072,0.305664c0.202957,0 0.272133,-0.137543 0.153648,-0.305664zm2.265144,-2.407776c0,-0.147491 -0.235222,-0.439423 -0.52272,-0.648712c-0.423927,-0.308563 -0.522728,-0.296417 -0.522728,0.064484c0,0.24469 0.104538,0.536621 0.23233,0.648712c0.330956,0.290253 0.813118,0.252014 0.813118,-0.064484zm-1.678505,-6.216614c-0.250069,-0.219299 -0.412399,-0.237366 -0.412399,-0.045837c0,0.40799 0.412125,0.76944 0.644699,0.56546c0.099037,-0.086884 -0.005508,-0.320679 -0.2323,-0.519623zm16.474739,18.69043c-0.12632,-0.179291 -0.146011,-0.399353 -0.043724,-0.489075c0.249619,-0.218933 0.92926,0.16684 0.92926,0.527466c0,0.390625 -0.601624,0.364532 -0.885536,-0.038391zm-67.52639,-1.278656c-0.260529,-0.378235 -0.707214,-1.031555 -0.992691,-1.451813c-0.748264,-1.101715 -1.458824,-3.561066 -1.199863,-4.152954c0.163021,-0.37262 0.485718,-0.459961 1.222134,-0.33078l1.000599,0.175507l-0.81702,-1.485382c-1.312321,-2.385986 -1.419445,-3.075958 -0.509834,-3.284576c0.786041,-0.180267 0.801693,-0.37616 0.172646,-2.157562c-0.205227,-0.581207 -0.071339,-0.743683 0.843082,-1.023285c1.262001,-0.385864 1.280682,-0.47644 0.497181,-2.411255c-0.565414,-1.396271 -0.562244,-1.493011 0.076736,-2.333405c0.404419,-0.531891 0.778168,-1.778473 0.950142,-3.169098c0.155914,-1.260803 0.342278,-2.704987 0.414169,-3.20932c0.071861,-0.504303 0.235893,-2.154816 0.364517,-3.667755c0.168526,-1.982605 0.41198,-2.942902 0.871731,-3.438538c0.350857,-0.378265 0.706409,-0.687714 0.790157,-0.687714c0.173054,0 0.672325,8.378021 0.610016,10.236389c-0.02401,0.715332 -0.24955,1.322235 -0.545341,1.467438c-0.399086,0.195862 -0.458359,0.682373 -0.283909,2.328827c0.149464,1.410522 0.093567,2.150085 -0.173477,2.29483c-0.23111,0.125305 -0.393993,1.081451 -0.393993,2.313263c0,1.458832 -0.159534,2.239563 -0.522728,2.558105c-0.294018,0.257874 -0.522724,1.00473 -0.522724,1.707062c0,0.686737 -0.175529,1.495117 -0.390057,1.796387c-0.307049,0.431244 -0.226864,0.828461 0.376709,1.866119c0.893166,1.535553 0.544125,2.294586 -0.733379,1.594849c-1.122471,-0.614807 -1.450638,-0.037781 -0.860271,1.512665c1.159615,3.045288 1.015762,4.781769 -0.24453,2.951996zm80.21389,-17.7276c-0.43502,-0.546326 -1.857071,-2.016296 -3.160088,-3.266602c-1.303055,-1.250244 -2.369164,-2.458069 -2.369164,-2.68399c0,-0.719757 0.905602,-0.749023 2.214783,-0.071533c1.806404,0.934814 1.638756,0.190613 -0.329765,-1.463684c-1.287163,-1.081726 -1.559021,-1.487 -1.391113,-2.07373c0.154312,-0.539215 -0.064468,-1.002045 -0.839577,-1.776367c-1.107956,-1.106781 -1.334717,-1.893311 -0.612663,-2.125061c0.301376,-0.096741 0.202057,-0.337158 -0.322281,-0.780121c-0.670898,-0.566772 -0.710907,-0.749695 -0.34848,-1.593353c0.366577,-0.853363 0.327362,-1.011414 -0.374687,-1.510315c-0.431244,-0.306458 -0.784088,-0.866058 -0.784088,-1.2435c0,-0.377472 -0.416367,-1.1651 -0.925255,-1.750305c-0.803955,-0.924408 -0.866722,-1.146271 -0.478508,-1.691437c0.401215,-0.563507 0.309036,-0.732452 -0.904282,-1.657257c-0.743073,-0.566376 -1.547058,-1.164642 -1.786644,-1.329529c-0.239578,-0.164825 -0.4356,-0.431793 -0.4356,-0.593323c0,-0.465149 0.776039,-0.342194 2.012215,0.318878c1.347618,0.720642 1.472618,0.738037 1.472618,0.204956c0,-0.222839 -0.392044,-0.728241 -0.871208,-1.123047c-0.921875,-0.759613 -1.112396,-1.222595 -0.503067,-1.222595c0.794617,0 2.393799,1.943085 2.37265,2.882874c-0.011574,0.515747 0.364311,1.625427 0.83535,2.465973c0.471008,0.840546 1.053818,2.0784 1.295105,2.750824c0.241295,0.672424 0.864761,1.635223 1.385529,2.139557c1.534836,1.486389 3.321724,5.001526 3.361656,6.613007c0.022789,0.920715 0.297363,1.740051 0.784088,2.339508c0.411942,0.507416 0.748962,1.080109 0.748962,1.272644c0,0.192505 0.254707,0.782013 0.565964,1.309967c0.540924,0.91748 0.533226,0.983215 -0.17424,1.485657c-0.931038,0.661255 -0.9272,0.711914 0.147659,1.947937c1.104553,1.270142 1.558281,3.217346 0.749657,3.217346c-0.299515,0 -0.900513,-0.447021 -1.335526,-0.993378zm-80.453266,-22.479523c0,-0.302094 0.617165,-1.07782 1.371426,-1.723785c1.224014,-1.048309 1.396931,-1.383484 1.608776,-3.11853c0.130539,-1.069183 0.375908,-1.94397 0.545235,-1.94397c0.169365,0 0.307884,-0.270874 0.307884,-0.60199c0,-0.331116 0.313641,-1.091766 0.696968,-1.690369c0.383335,-0.598602 0.696968,-1.411194 0.696968,-1.805756c0,-0.394562 0.218712,-0.876617 0.486031,-1.071198c0.506523,-0.368683 0.91721,-1.967804 0.90958,-3.541656c-0.00251,-0.521637 0.361481,-1.312256 0.844372,-1.833893c0.802906,-0.86734 0.881771,-0.888641 1.45715,-0.393372c0.517185,0.44519 0.544334,0.646698 0.18132,1.34552c-0.297638,0.572968 -0.316357,0.918915 -0.06179,1.142181c0.668461,0.586304 0.413029,2.191559 -0.463722,2.914001c-0.555557,0.457733 -0.892818,1.15567 -1.022766,2.116394c-0.106602,0.788391 -0.297607,1.914825 -0.424419,2.503204c-0.126778,0.588379 -0.254635,1.376617 -0.284046,1.751678c-0.029446,0.375031 -0.408985,0.900208 -0.843437,1.167084c-0.434456,0.266846 -0.693344,0.622223 -0.575314,0.789764c0.118031,0.16748 0.1134,0.777832 -0.010349,1.356293c-0.176544,0.82547 -0.482162,1.146027 -1.42028,1.489838c-0.657413,0.240936 -1.542213,0.721497 -1.966179,1.067932c-0.958923,0.783569 -2.033405,0.826172 -2.033405,0.080627zm18.32819,-18.951447c-0.097435,-0.285583 -0.158978,-1.413269 -0.13678,-2.505951c0.022202,-1.092682 -0.07346,-2.296082 -0.212574,-2.674194c-0.205467,-0.558441 -0.08503,-0.743469 0.641659,-0.985779c0.626648,-0.208984 0.894596,-0.524078 0.894596,-1.052002c0,-0.414459 0.136223,-0.827454 0.302727,-0.917725c0.166473,-0.09021 0.409088,-0.747559 0.539104,-1.460693c0.130024,-0.713135 0.425049,-1.398865 0.655605,-1.523834c0.230591,-0.125 0.42355,-0.841461 0.428844,-1.592163c0.007523,-1.072693 0.204594,-1.523438 0.920311,-2.105225c0.500877,-0.407135 1.163029,-0.825195 1.471436,-0.928986c0.313496,-0.10553 0.560745,-0.534119 0.560745,-0.972046c0,-0.48172 0.23481,-0.844482 0.609848,-0.942169c0.335411,-0.087372 1.02639,-0.34433 1.535492,-0.571014l0.925636,-0.41217l-0.656616,1.268311c-0.361122,0.697601 -0.665039,1.612183 -0.675354,2.032471c-0.010315,0.420258 -0.248993,1.031097 -0.530396,1.357422c-0.281395,0.326294 -0.511642,0.974792 -0.511642,1.441071c0,0.534943 -0.257149,0.968475 -0.696968,1.174927c-0.506348,0.237671 -0.696968,0.639954 -0.696968,1.470978c0,0.62912 -0.234249,1.437164 -0.520565,1.795715c-0.286312,0.358521 -0.579319,1.223785 -0.651104,1.922791c-0.071793,0.699005 -0.307957,1.426544 -0.524853,1.616791c-0.2169,0.190247 -0.394379,0.67511 -0.394379,1.077484c0,0.467987 -0.244534,0.787689 -0.678669,0.887299c-0.506035,0.116028 -0.705509,0.469635 -0.784092,1.389954c-0.080742,0.945648 -0.284611,1.292053 -0.871666,1.481171c-0.578308,0.186279 -0.8097,0.119476 -0.943378,-0.27243zm38.286728,-5.269348c-0.558411,-0.51123 -1.749947,-1.342957 -2.64785,-1.848297c-1.975029,-1.111603 -2.261452,-1.634827 -1.244293,-2.272949l0.769485,-0.482697l-0.723312,-0.524841c-1.21109,-0.878754 -2.050827,-2.246552 -1.941338,-3.162079c0.083328,-0.69696 -0.107506,-0.973083 -0.968925,-1.401855c-0.590012,-0.293671 -1.16745,-0.809021 -1.28318,-1.145233c-0.115768,-0.336212 -0.5466,-0.853699 -0.957466,-1.149933c-0.697731,-0.503143 -0.706619,-0.559601 -0.134827,-0.856842c0.491432,-0.255463 0.537399,-0.440735 0.233139,-0.939392c-0.208466,-0.341614 -0.295197,-0.694641 -0.19278,-0.784485c0.40062,-0.351379 2.697189,0.279144 3.10154,0.851532c0.23526,0.333069 1.027748,0.97113 1.761024,1.417938c1.197426,0.729553 1.311806,0.912781 1.122505,1.797852c-0.242264,1.13269 0.859604,2.822815 2.647774,4.06134c0.917801,0.635712 1.025658,0.864258 0.832947,1.765198c-0.165947,0.775818 -0.04248,1.255371 0.493042,1.914978c0.392906,0.483978 0.714386,1.05423 0.714386,1.267212c0,0.212952 0.239029,0.618835 0.531128,0.901947c0.633194,0.613647 0.333115,1.520111 -0.503212,1.520111c-0.326942,0 -1.051369,-0.418274 -1.609787,-0.929504z" id="path2204"/>
  </g>
 </g>
</svg>